<svg width="40" height="40" viewBox="0 0 40 40" fill="none" xmlns="http://www.w3.org/2000/svg">
    <g clip-path="url(#clip0_404_988)">
        <path
            d="M40 20C40 8.9543 31.0457 0 20 0C8.9543 0 0 8.9543 0 20C0 31.0457 8.9543 40 20 40C31.0457 40 40 31.0457 40 20Z"
            fill="white" />
        <path
            d="M30 30C28.0222 31.9777 25.5023 33.3247 22.759 33.8704C20.0158 34.4161 17.1722 34.136 14.588 33.0656C12.0039 31.9952 9.79525 30.1826 8.2413 27.857C6.68734 25.5312 5.85791 22.797 5.85791 20C5.85791 17.203 6.68734 14.4687 8.2413 12.143C9.79525 9.81738 12.0039 8.00474 14.588 6.93437C17.1722 5.86398 20.0158 5.58392 22.759 6.12959C25.5023 6.67527 28.0222 8.02218 30 9.99999L20 20L30 30Z"
            fill="#D9D9D9" />
        <path
            d="M14.5877 33.0656C12.0036 31.9952 9.79488 30.1826 8.24092 27.857C6.68697 25.5313 5.85754 22.797 5.85754 20H19.9997L14.5877 33.0656Z"
            fill="#E6B84A" />
        <path
            d="M5.85767 20.0001C5.85767 17.203 6.68709 14.4687 8.24105 12.1431C9.795 9.81746 12.0037 8.00484 14.5878 6.93445L19.9998 20.0001H5.85767Z"
            fill="#5C8FED" />
        <path
            d="M30 30C28.0221 31.9778 25.5023 33.3248 22.759 33.8704C20.0158 34.4161 17.1721 34.136 14.588 33.0656L20 20L30 30Z"
            fill="#CC5C4B" />
        <path
            d="M14.5883 6.93443C17.1724 5.86404 20.0159 5.58398 22.7591 6.12965C25.5025 6.67534 28.0224 8.02224 30.0001 10.0001L20.0001 20L14.5883 6.93443Z"
            fill="#51A069" />
        <path
            d="M26.8425 26.7775C25.5139 28.1061 23.8212 29.0109 21.9784 29.3775C20.1355 29.744 18.2254 29.5559 16.4895 28.8369C14.7536 28.1179 13.2699 26.9002 12.226 25.3379C11.1822 23.7756 10.625 21.9389 10.625 20.06C10.625 18.1811 11.1822 16.3444 12.226 14.7821C13.2699 13.2199 14.7536 12.0022 16.4895 11.2832C18.2254 10.5641 20.1355 10.376 21.9784 10.7425C23.8212 11.1091 25.5139 12.0139 26.8425 13.3425L20.125 20.06L26.8425 26.7775Z"
            fill="white" />
    </g>
    <defs>
        <clipPath id="clip0_404_988">
            <rect width="40" height="40" fill="white" />
        </clipPath>
    </defs>
</svg>