<svg width="396" height="65" viewBox="0 0 396 65" fill="none" xmlns="http://www.w3.org/2000/svg">
<g clip-path="url(#clip0_386_956)">
<path d="M159.47 21.2C157.31 20.72 155.13 21.02 152.96 20.99C148.88 20.93 148.88 20.99 148.89 16.83C148.89 16.65 148.89 16.46 148.89 16.28C148.89 11.1 151.47 8.81003 156.62 9.59003C158.26 9.84003 159.25 9.44003 159.84 7.94003C160.31 6.77003 160.84 5.60003 161.3 4.44003C161.76 3.28003 161.5 2.44003 160.16 1.95003C158.16 1.16003 156.03 1.43003 153.97 1.43003C152.134 1.38832 150.308 1.7166 148.601 2.39533C146.894 3.07406 145.341 4.08935 144.035 5.38073C142.728 6.67212 141.695 8.21319 140.997 9.91216C140.299 11.6111 139.949 13.4333 139.97 15.27C139.97 20.69 139.97 20.69 134.39 20.98C133.5 20.98 132.63 20.88 132.29 22.14C131.02 26.77 132.41 28.86 137.15 28.74C139.54 28.68 140.03 29.61 140.01 31.74C139.91 40.42 140.01 49.1 140.01 57.74C140.01 63.11 140.01 63.11 145.29 63.1C148.9 63.1 148.94 63.1 148.94 59.48C148.94 50.26 149.01 41.04 148.94 31.82C148.94 29.5 149.52 28.6 151.94 28.67C154.36 28.74 157 29.23 159.46 28.35C160.808 28.5422 162.168 28.6358 163.53 28.63C165.8 28.45 166.53 29.33 166.53 31.58C166.41 37 166.41 42.4234 166.53 47.85C166.541 50.3768 166.806 52.8961 167.32 55.37C168.32 59.99 173.16 64.37 180.74 64.11C187.19 63.86 188.04 62.51 184.85 56.92C184.669 56.5106 184.356 56.1737 183.96 55.9634C183.565 55.7531 183.111 55.6815 182.67 55.76C176.97 56.27 175.12 54.6 175.09 48.87C175.09 43.81 175.09 38.74 175.09 33.68C175.09 28.04 174.52 28.68 180.25 28.68C185.98 28.68 185.57 29.41 185.54 22.89C185.54 21.51 184.83 20.94 183.54 20.95C181.63 20.95 179.71 20.82 177.81 20.95C175.6 21.13 174.95 20.21 175.08 18.12C175.23 15.6 175.08 13.06 175.08 10.53C175.08 8.78003 174.58 7.93003 172.59 7.90003C166.48 7.79003 166.48 7.72003 166.48 13.9V14.71C166.48 20.71 166.48 20.71 160.61 20.99C160.225 21.0315 159.844 21.1017 159.47 21.2ZM215.62 64.2C218.26 64.55 220.45 63.27 222.45 61.95C230.22 56.8 233.57 49.51 233.05 40.2C232.31 27.14 221.23 16.36 205.73 19.77C188.39 23.58 184.52 45.07 193.65 56.58C196.92 60.71 200.87 63.85 206.46 64.2H215.62ZM35.68 64.2C44.21 64.69 50.46 60.2 56.23 54.77C56.81 54.22 57.23 53.43 56.75 52.77C55.4898 50.7705 53.7771 49.0954 51.75 47.88C49.94 46.88 49.45 49.15 48.29 49.81C47.6678 50.1809 47.0819 50.6094 46.54 51.09C36.06 59.94 18.66 56.54 12.32 44.4C9.72 39.4 9.55 34.14 9.9 28.65C10.4 20.65 16.9 12.09 24.67 9.96003C33.39 7.68003 41.4 8.47003 48 15.4C49 16.4 49.66 16.4 50.72 15.4C56.36 10.4 56.39 10.45 50.72 5.73003C50.1674 5.26437 49.5789 4.84306 48.96 4.47003C40.11 -0.849974 30.82 -0.999974 21.22 1.80003C16.3281 3.31512 11.9502 6.15295 8.57 10C-2.16 21.59 -2.87 40.64 6.75 52.59C12.47 59.71 19.48 64.59 29.19 64.27L35.68 64.2ZM127.84 48.87C127.84 44.98 127.91 41.09 127.84 37.2C127.876 34.4181 127.245 31.6679 126 29.18C120.77 19.71 112.49 18.53 102.52 20.36C98.16 21.16 94.93 24.06 92.52 27.78C91.84 28.85 91.45 29.84 92.86 30.78C96.56 33.23 98.5 33.12 101.71 30.15C106.91 25.33 116.58 27.33 118.87 33.71C119.094 34.1053 119.22 34.5487 119.238 35.0028C119.255 35.457 119.163 35.9087 118.97 36.32C118.27 37.32 117.32 36.52 116.51 36.27C110.744 34.4341 104.51 34.725 98.94 37.09C93.6 39.36 90.2 43.37 89.85 49.24C89.5855 51.8717 90.1016 54.523 91.334 56.8632C92.5664 59.2035 94.4604 61.1291 96.78 62.4C102.58 65.88 112 65.12 117.05 60.61C117.56 60.16 117.94 59.27 118.8 59.61C119.66 59.95 119.29 60.7 119.31 61.29C119.31 62.68 120.07 63.23 121.38 63.22C122.69 63.21 123.93 63.13 125.19 63.22C127.19 63.4 127.95 62.66 127.88 60.61C127.75 56.72 127.84 52.83 127.84 48.94V48.87ZM306.09 64.32C319 65.62 328 53 328 42.23C327.95 30.03 318.44 19.63 306.33 19.6C294.22 19.57 284.57 29.75 284.44 42C284.31 53.68 293.94 65.56 306.09 64.32ZM258.47 64.32C271.86 65.58 280.42 53.11 280.47 42.32C280.53 29.76 270.8 19.67 258.67 19.55C246.54 19.43 236.87 30 236.79 42C236.7 53.59 246.48 65.68 258.47 64.32ZM377.95 64.32C384.01 64.32 386.49 63.67 389.76 61.32C397.59 55.66 396.88 45.17 388.48 40.6C386.452 39.5845 384.296 38.8479 382.07 38.41C378.98 37.7 375.81 37.25 372.87 36.02C369.36 34.55 368.97 31.02 371.99 28.77C375.66 26 383 26.91 386 30.4C387.65 32.34 391 32.4 393.22 30.18C395.14 28.29 393.08 26.81 392.06 25.56C385.72 17.71 370.92 18.09 364.57 24.69C360.23 29.19 360.42 36.57 365 40.13C367.873 42.3617 371.218 43.9077 374.78 44.65C377.615 45.2444 380.413 46.0023 383.16 46.92C384.093 47.1579 384.925 47.688 385.535 48.433C386.145 49.1779 386.501 50.0985 386.55 51.06C386.71 53.4 385.49 54.82 383.63 55.82C382.763 56.3166 381.815 56.6552 380.83 56.82C375.52 57.47 371.09 56.08 368.39 51.11C368.285 50.834 368.123 50.5835 367.914 50.375C367.705 50.1665 367.455 50.0049 367.178 49.9009C366.902 49.7968 366.607 49.7527 366.312 49.7716C366.018 49.7904 365.731 49.8717 365.47 50.01C364.53 50.36 363.63 50.81 362.69 51.11C360.49 51.81 360.09 53.01 361.36 54.95C365.42 61.08 370.66 65 378 64.31L377.95 64.32ZM62.82 42C62.82 47.06 62.82 52.12 62.82 57.17C62.82 64.11 62.23 63.04 68.98 63.17C71.06 63.23 71.63 62.45 71.61 60.49C71.52 53.81 71.61 47.13 71.61 40.49C71.61 32.56 77.42 26.97 84.47 28.37C84.7959 28.477 85.1411 28.5123 85.4819 28.4735C85.8228 28.4346 86.1512 28.3225 86.4446 28.1449C86.7381 27.9673 86.9897 27.7284 87.1822 27.4445C87.3747 27.1606 87.5036 26.8384 87.56 26.5C87.8781 25.5614 88.2453 24.6401 88.66 23.74C89.74 21.05 89.3 20.31 86.3 19.9C81.66 19.26 77.48 20.21 73.99 23.51C72.68 24.75 71.62 25.12 71.49 22.71C71.43 21.43 70.69 21.01 69.49 21.03C68.3114 21.1101 67.1286 21.1101 65.95 21.03C63.56 20.78 62.75 21.8 62.79 24.14C62.89 30 62.82 36 62.82 42ZM333.59 42.1C333.59 47.43 333.59 52.76 333.59 58.1C333.59 63.88 333.09 63.1 338.92 63.3C341.55 63.39 342.15 62.38 342.11 59.98C341.99 53.12 342.06 46.26 342.11 39.39C342.11 32.2 348.71 26.71 354.78 28.39C355.084 28.5001 355.408 28.5443 355.73 28.5196C356.053 28.4949 356.366 28.402 356.65 28.2469C356.934 28.0918 357.181 27.8781 357.376 27.62C357.571 27.3619 357.709 27.0654 357.78 26.75C358.13 25.83 358.54 24.92 358.92 24C360.08 21.2 359.52 20.32 356.4 19.95C354.145 19.6037 351.84 19.7895 349.67 20.4928C347.499 21.196 345.523 22.397 343.9 24C343.39 24.48 342.97 25.37 342.2 25.15C341.43 24.93 341.62 23.91 341.66 23.26C341.79 21.44 340.94 20.82 339.22 20.97C338.409 21.06 337.591 21.06 336.78 20.97C334.21 20.62 333.48 21.77 333.54 24.22C333.68 30.14 333.59 36.1 333.59 42.06V42.1Z" fill="#FDFDFD"/>
<path d="M127.84 48.94C127.84 52.83 127.75 56.72 127.84 60.6C127.91 62.6 127.14 63.39 125.15 63.21C123.89 63.1 122.61 63.21 121.34 63.21C120.07 63.21 119.29 62.67 119.27 61.28C119.27 60.69 119.5 59.88 118.76 59.6C118.02 59.32 117.52 60.17 117.01 60.6C111.96 65.11 102.54 65.87 96.74 62.39C94.4205 61.1191 92.5264 59.1935 91.294 56.8532C90.0617 54.5129 89.5455 51.8617 89.81 49.23C90.16 43.36 93.56 39.35 98.9 37.08C104.47 34.715 110.704 34.4241 116.47 36.26C117.28 36.51 118.23 37.32 118.93 36.31C119.123 35.8987 119.215 35.447 119.198 34.9928C119.18 34.5387 119.054 34.0953 118.83 33.7C116.54 27.32 106.83 25.32 101.67 30.14C98.46 33.14 96.52 33.22 92.82 30.77C91.41 29.84 91.82 28.85 92.48 27.77C94.87 24.05 98.1 21.15 102.48 20.35C112.48 18.52 120.73 19.7 125.96 29.17C127.213 31.6799 127.841 34.4553 127.79 37.26C127.89 41.15 127.79 45.04 127.79 48.93L127.84 48.94ZM106.84 56.76C109.436 56.755 111.97 55.9668 114.111 54.4985C116.252 53.0301 117.9 50.95 118.84 48.53C119.78 45.84 119.2 44.53 116.54 43.48C112.924 42.1832 109.005 41.9917 105.28 42.93C103.696 43.1803 102.233 43.9289 101.104 45.0672C99.9747 46.2055 99.2377 47.6743 99 49.26C98.36 53.56 101.7 56.65 106.88 56.76H106.84Z" fill="#E6B84A"/>
<path d="M306.09 64.32C293.94 65.56 284.31 53.6801 284.44 42.0001C284.57 29.7601 294.1 19.5801 306.32 19.6101C318.54 19.6401 327.94 30.0001 328 42.2301C328 53.0001 319 65.62 306.09 64.32ZM306.78 56.8601C308.255 56.8412 309.714 56.5461 311.08 55.9901C316.77 53.4501 319.31 48.84 319.61 42.92C320.13 32.65 312.5 26.1901 304.19 27.3801C297.93 28.2801 293.27 33.63 292.82 41.26C292.23 51.33 299.33 57.0901 306.78 56.8601Z" fill="#CD5948"/>
<path d="M258.47 64.32C246.47 65.68 236.7 53.59 236.79 42.01C236.87 30.01 246.68 19.45 258.66 19.58C270.64 19.71 280.52 29.79 280.46 42.35C280.42 53.11 271.86 65.58 258.47 64.32ZM245.55 42.38C245.55 42.88 245.5 43.7 245.55 44.5C245.613 46.9117 246.375 49.2531 247.744 51.2397C249.112 53.2263 251.029 54.7724 253.26 55.69C255.476 56.8023 257.978 57.2125 260.433 56.8659C262.888 56.5193 265.179 55.4323 267 53.75C269.34 51.6582 270.993 48.9079 271.743 45.8599C272.492 42.8119 272.303 39.6086 271.2 36.67C269.28 31.34 265.65 28.09 259.99 27.36C252.61 26.41 244.72 32.61 245.55 42.38Z" fill="#5C8DE8"/>
<path d="M378 64.31C370.71 65.02 365.47 61.08 361.42 54.93C360.15 52.99 360.55 51.79 362.75 51.09C363.69 50.79 364.59 50.34 365.53 49.99C365.791 49.8517 366.078 49.7704 366.372 49.7515C366.667 49.7327 366.962 49.7768 367.238 49.8808C367.514 49.9849 367.765 50.1465 367.974 50.355C368.183 50.5635 368.345 50.814 368.45 51.09C371.15 56.09 375.58 57.45 380.89 56.8C381.875 56.6352 382.823 56.2966 383.69 55.8C385.55 54.8 386.77 53.38 386.61 51.04C386.561 50.0785 386.205 49.1579 385.595 48.413C384.985 47.668 384.153 47.1379 383.22 46.9C380.473 45.9823 377.675 45.2244 374.84 44.63C371.259 43.9023 367.893 42.3628 365 40.13C360.42 36.57 360.23 29.19 364.57 24.69C370.92 18.09 385.72 17.69 392.06 25.56C393.06 26.81 395.14 28.29 393.22 30.18C390.97 32.39 387.65 32.34 386 30.4C383 26.91 375.65 26.04 372 28.75C369 30.99 369.37 34.53 372.88 36C375.82 37.23 378.99 37.68 382.08 38.39C384.306 38.8278 386.462 39.5645 388.49 40.58C396.89 45.15 397.6 55.64 389.77 61.3C386.49 63.66 384 64.32 378 64.31Z" fill="#5C8FED"/>
<path d="M35.68 64.2701H29.19C28.93 63.1801 28.04 63.3801 27.19 63.2701C16.34 61.5101 8.74002 55.3701 4.10002 45.6101C1.30842 39.4908 0.571725 32.6326 2.00002 26.0601C3.26329 19.1662 6.90035 12.9323 12.28 8.44006C16.8402 4.53212 22.4855 2.11071 28.46 1.50006C37.23 0.500056 45.17 2.56006 51.92 8.50006C53.26 9.68006 53.69 10.8301 52.06 12.0301C50.77 12.9801 50.17 15.5201 47.62 13.1601C39.86 5.97006 27.62 5.67006 19.15 11.3301C8.43002 18.5001 6.94002 27.7301 8.94002 38.9101C11.71 54.4001 29.41 61.7501 43.14 54.9101C45.352 53.8447 47.378 52.4299 49.14 50.7201C51.47 48.4101 52.69 50.6701 54.24 51.9701C56.05 53.4901 54.82 54.3801 53.74 55.4001C49.2886 59.5777 43.6814 62.3167 37.65 63.2601C36.84 63.3801 35.94 63.1801 35.68 64.2701Z" fill="#5187E9"/>
<path d="M215.62 64.22H206.46C204.8 62.42 202.23 62.49 200.3 61.22C192.72 56.22 189.56 49.04 190.06 40.13C190.206 37.0412 191.036 34.0233 192.489 31.2939C193.943 28.5645 195.984 26.1916 198.465 24.3463C200.946 22.5011 203.806 21.2295 206.839 20.6231C209.871 20.0168 213 20.0909 216 20.84C225.19 23.05 231.43 30.49 232 40.37C232.51 49.59 229.07 56.91 220.82 61.69C219.13 62.66 216.92 62.51 215.62 64.22ZM197.62 42.1C197.62 42.64 197.62 43.19 197.62 43.73C198.14 52.06 205.42 58.2 213.29 56.73C218.8 55.73 223.08 51.48 224.2 44.73C225.78 35.28 219.8 27.5 211.39 27.22C203.54 27 197.65 33.35 197.66 42.1H197.62Z" fill="#CB5445"/>
<path d="M159.41 28.4C156.95 29.28 154.41 28.8 151.89 28.72C149.37 28.64 148.82 29.55 148.89 31.87C149 41.09 148.94 50.31 148.89 59.53C148.89 63.12 148.89 63.14 145.24 63.15C139.96 63.15 139.96 63.15 139.96 57.79C139.96 49.11 139.9 40.43 139.96 31.79C139.96 29.65 139.49 28.72 137.1 28.79C132.36 28.91 130.97 26.79 132.24 22.19C132.58 20.93 133.45 21.07 134.34 21.03C139.88 20.74 139.88 20.74 139.92 15.32C139.892 13.4722 140.239 11.6378 140.939 9.92754C141.639 8.21726 142.678 6.66645 143.994 5.36858C145.31 4.07071 146.875 3.05265 148.594 2.37576C150.314 1.69886 152.153 1.37715 154 1.43001C156.06 1.43001 158.15 1.16001 160.19 1.95001C161.53 2.47001 161.85 3.20001 161.33 4.44001C160.81 5.68001 160.33 6.77001 159.87 7.94001C159.28 9.44001 158.29 9.84001 156.65 9.59001C151.5 8.81001 148.94 11.1 148.92 16.28C148.92 16.46 148.92 16.65 148.92 16.83C148.92 20.97 148.92 20.93 152.99 20.99C155.16 20.99 157.34 20.72 159.5 21.19C158.781 23.5352 158.75 26.0376 159.41 28.4Z" fill="#5C8FE7"/>
<path d="M159.41 28.4C158.74 26.0405 158.761 23.5381 159.47 21.19C159.823 21.1065 160.18 21.0431 160.54 21C166.41 20.72 166.41 20.72 166.41 14.72V13.91C166.41 7.78003 166.41 7.85003 172.52 7.96003C174.52 7.96003 175.05 8.84003 175.01 10.59C175.01 13.12 175.12 15.66 175.01 18.18C174.88 20.27 175.53 21.18 177.74 21.01C179.64 20.86 181.56 21.01 183.47 21.01C184.79 21.01 185.47 21.57 185.47 22.95C185.47 29.47 186.01 28.7 180.18 28.74C174.35 28.78 175.04 28.11 175.02 33.74C175.02 38.8 175.02 43.87 175.02 48.93C175.02 54.66 176.9 56.33 182.6 55.82C183.042 55.7454 183.495 55.8211 183.889 56.035C184.282 56.249 184.593 56.5888 184.77 57C187.96 62.59 187.11 63.94 180.66 64.19C173.08 64.48 168.29 60.07 167.24 55.45C166.726 52.9761 166.461 50.4568 166.45 47.93C166.33 42.51 166.33 37.0867 166.45 31.66C166.5 29.41 165.75 28.53 163.45 28.71C162.098 28.7044 160.747 28.6008 159.41 28.4Z" fill="#51A069"/>
<path d="M62.82 42.0001C62.82 36.0001 62.89 30.0801 62.82 24.1301C62.82 21.7901 63.59 20.7701 65.98 21.0201C67.1587 21.1001 68.3414 21.1001 69.52 21.0201C70.7 21.0201 71.44 21.4201 71.52 22.7001C71.65 25.1101 72.71 24.7001 74.02 23.5001C77.51 20.2001 81.69 19.2501 86.33 19.8901C89.33 20.3001 89.77 21.0401 88.69 23.7301C88.2753 24.6302 87.9081 25.5514 87.59 26.4901C87.5336 26.8284 87.4048 27.1506 87.2122 27.4345C87.0197 27.7184 86.7681 27.9574 86.4746 28.135C86.1812 28.3126 85.8528 28.4246 85.512 28.4635C85.1711 28.5023 84.8259 28.4671 84.5 28.3601C77.5 26.9601 71.65 32.5501 71.64 40.4801C71.64 47.1601 71.58 53.8401 71.64 60.4801C71.64 62.4801 71.09 63.2201 69.01 63.1601C62.26 62.9801 62.87 64.0501 62.85 57.1601C62.81 52.0801 62.82 47.0001 62.82 42.0001Z" fill="#CC5C4B"/>
<path d="M333.59 42.0601C333.59 36.0601 333.68 30.14 333.59 24.18C333.53 21.73 334.26 20.5801 336.83 20.9301C337.641 21.02 338.459 21.02 339.27 20.9301C340.99 20.7801 341.84 21.4 341.71 23.22C341.71 23.87 341.36 24.8601 342.25 25.1101C343.14 25.3601 343.44 24.44 343.95 23.96C345.565 22.3541 347.532 21.1471 349.695 20.4354C351.858 19.7236 354.157 19.5266 356.41 19.8601C359.53 20.2301 360.09 21.11 358.93 23.91C358.55 24.83 358.14 25.74 357.79 26.66C357.719 26.9754 357.581 27.272 357.386 27.53C357.191 27.7881 356.944 28.0018 356.66 28.1569C356.376 28.312 356.063 28.405 355.74 28.4296C355.418 28.4543 355.094 28.4102 354.79 28.3C348.72 26.66 342.16 32.15 342.12 39.3C342.12 46.17 342.02 53.03 342.12 59.89C342.12 62.29 341.56 63.3 338.93 63.21C333.1 63 333.61 63.79 333.6 58.01C333.58 52.72 333.59 47.3901 333.59 42.0601Z" fill="#E9BA48"/>
<path d="M35.68 64.27C35.94 63.18 36.84 63.38 37.68 63.27C43.7115 62.3267 49.3186 59.5876 53.77 55.41C54.85 54.41 56.08 53.5 54.27 51.98C52.72 50.68 51.5 48.42 49.17 50.73C47.408 52.4398 45.3821 53.8546 43.17 54.92C29.44 61.77 11.74 54.42 8.97005 38.92C6.97005 27.74 8.46005 18.51 19.18 11.31C27.61 5.65001 39.89 5.95001 47.65 13.14C50.2 15.5 50.8 12.96 52.09 12.01C53.72 10.81 53.29 9.66 51.95 8.48C45.2 2.57 37.26 0.480004 28.49 1.48C22.5028 2.0904 16.8459 4.51925 12.28 8.44C6.90038 12.9322 3.26331 19.1662 2.00005 26.06C0.571754 32.6325 1.30844 39.4908 4.10004 45.61C8.74004 55.37 16.34 61.51 27.24 63.25C28.04 63.38 28.93 63.18 29.24 64.25C19.53 64.59 12.52 59.69 6.80005 52.57C-2.81995 40.57 -2.10995 21.57 8.62004 9.93001C11.9954 6.11626 16.3542 3.30379 21.22 1.8C30.82 -0.999996 40.11 -0.849996 48.89 4.51C49.509 4.88303 50.0975 5.30434 50.65 5.77C56.36 10.49 56.33 10.47 50.65 15.44C49.59 16.37 48.89 16.44 47.93 15.44C41.36 8.51 33.35 7.72 24.63 10.12C17 12.21 10.4 20.8 9.90004 28.77C9.55004 34.26 9.72004 39.54 12.32 44.52C18.66 56.66 36.06 60.06 46.54 51.21C47.082 50.7294 47.6679 50.3009 48.29 49.93C49.45 49.27 49.94 47.04 51.75 48C53.7771 49.2154 55.4899 50.8905 56.75 52.89C57.18 53.5 56.81 54.29 56.23 54.89C50.46 60.31 44.21 64.76 35.68 64.27Z" fill="#5187E9"/>
<path d="M215.62 64.2201C216.92 62.5101 219.13 62.66 220.81 61.69C229.06 56.91 232.5 49.5901 231.99 40.3701C231.44 30.4901 225.2 23.0501 215.99 20.8401C212.991 20.0894 209.862 20.0136 206.83 20.618C203.798 21.2224 200.938 22.4919 198.456 24.3352C195.973 26.1784 193.931 28.5494 192.476 31.2773C191.021 34.0051 190.189 37.0219 190.04 40.1101C189.54 49.0201 192.7 56.1101 200.28 61.2001C202.21 62.4901 204.78 62.42 206.44 64.2C200.85 63.85 196.9 60.7101 193.63 56.5801C184.5 45.0701 188.37 23.5801 205.71 19.7701C221.21 16.3601 232.29 27.1401 233.03 40.2001C233.55 49.5101 230.2 56.8001 222.43 61.9501C220.45 63.2901 218.26 64.5701 215.62 64.2201Z" fill="#CB5445"/>
</g>
<defs>
<clipPath id="clip0_386_956">
<rect width="395.23" height="64.57" fill="white"/>
</clipPath>
</defs>
</svg>
