<svg width="32" height="32" viewBox="0 0 32 32" fill="none" xmlns="http://www.w3.org/2000/svg">
<rect width="32" height="32" rx="16" fill="white"/>
<path d="M24 24C22.4177 25.5822 20.4018 26.6598 18.2072 27.0963C16.0126 27.5329 13.7377 27.3088 11.6704 26.4525C9.60312 25.5962 7.83616 24.1461 6.593 22.2856C5.34983 20.425 4.68629 18.2376 4.68629 16C4.68629 13.7624 5.34983 11.575 6.593 9.71444C7.83616 7.85391 9.60312 6.4038 11.6704 5.5475C13.7377 4.69119 16.0126 4.46714 18.2072 4.90368C20.4018 5.34022 22.4177 6.41775 24 8L16 16L24 24Z" fill="#D9D9D9"/>
<path d="M11.6702 26.4525C9.60291 25.5962 7.83595 24.1461 6.59278 22.2856C5.34962 20.425 4.68608 18.2376 4.68608 16L15.9998 16L11.6702 26.4525Z" fill="#E6B84A"/>
<path d="M4.68618 16.0001C4.68618 13.7624 5.34972 11.575 6.59289 9.71451C7.83605 7.85398 9.60301 6.40388 11.6703 5.54757L15.9999 16.0001L4.68618 16.0001Z" fill="#5C8FED"/>
<path d="M24 24C22.4177 25.5822 20.4018 26.6598 18.2072 27.0963C16.0126 27.5329 13.7377 27.3088 11.6704 26.4525L16 16L24 24Z" fill="#CC5C4B"/>
<path d="M11.6706 5.54753C13.7379 4.69122 16.0127 4.46717 18.2073 4.90371C20.402 5.34026 22.4179 6.41778 24.0001 8.00003L16.0001 16L11.6706 5.54753Z" fill="#51A069"/>
<path d="M21.474 21.422C20.4111 22.4849 19.0569 23.2087 17.5827 23.502C16.1084 23.7952 14.5803 23.6447 13.1916 23.0695C11.8029 22.4943 10.6159 21.5202 9.78081 20.2703C8.94571 19.0205 8.49998 17.5511 8.49998 16.048C8.49998 14.5449 8.94571 13.0755 9.78081 11.8257C10.6159 10.5759 11.8029 9.60175 13.1916 9.02653C14.5803 8.4513 16.1084 8.30079 17.5827 8.59404C19.0569 8.88729 20.4111 9.61112 21.474 10.674L16.1 16.048L21.474 21.422Z" fill="white"/>
</svg>
